<?xml version="1.0" encoding="UTF-8" standalone="no"?>
<!-- Created with Inkscape (http://www.inkscape.org/) -->

<svg
   xmlns:dc="http://purl.org/dc/elements/1.1/"
   xmlns:cc="http://creativecommons.org/ns#"
   xmlns:rdf="http://www.w3.org/1999/02/22-rdf-syntax-ns#"
   xmlns:svg="http://www.w3.org/2000/svg"
   xmlns="http://www.w3.org/2000/svg"
   version="1.1"
   width="331.60651"
   height="280.53125"
   id="svg4341">
  <defs
     id="defs4343" />
  <metadata
     id="metadata4346">
    <rdf:RDF>
      <cc:Work
         rdf:about="">
        <dc:format>image/svg+xml</dc:format>
        <dc:type
           rdf:resource="http://purl.org/dc/dcmitype/StillImage" />
        <dc:title></dc:title>
      </cc:Work>
    </rdf:RDF>
  </metadata>
  <g
     transform="translate(-98.737251,-287.6875)"
     id="layer1">
    <path
       d="m 127.28815,326.06295 c -1.03652,70.21833 -2.02878,141.72314 -2.02878,209.61007 82.59224,3.53708 165.29022,1.42687 241.42555,-2.51935"
       id="path4387"
       style="fill:none;stroke:#000000;stroke-width:1.00089979px;stroke-linecap:butt;stroke-linejoin:miter;stroke-opacity:1" />
    <path
       d="m 126.77415,326.06251 c 83.75661,52.0991 181.39882,149.92219 240.92138,206.57619"
       id="path4389"
       style="fill:none;stroke:#000000;stroke-width:1px;stroke-linecap:butt;stroke-linejoin:miter;stroke-opacity:1" />
    <path
       d="m 139.40105,307.87975 c 74.90711,2.09224 170.53344,2.62445 239.40616,2.02031"
       id="path4391"
       style="fill:none;stroke:#000000;stroke-width:1px;stroke-linecap:butt;stroke-linejoin:miter;stroke-opacity:1" />
    <path
       d="m 379.81736,515.97118 c 2.79269,-49.37015 -0.59614,-151.57886 -3.03046,-207.08127"
       id="path4395"
       style="fill:none;stroke:#000000;stroke-width:1px;stroke-linecap:butt;stroke-linejoin:miter;stroke-opacity:1" />
    <path
       d="m 140.41773,308.39135 c 85.1236,58.68215 176.67325,143.78396 239.89818,207.06823"
       id="path4397"
       style="fill:none;stroke:#000000;stroke-width:1.01304615px;stroke-linecap:butt;stroke-linejoin:miter;stroke-opacity:1" />
    <path
       d="m 195.35279,468.16313 c 7.07083,-4.70348 10.20715,-17.57899 12.85714,-22.14286 -2.13321,18.4545 0.47691,35.29083 0.71429,52.85714"
       id="path4403"
       style="fill:none;stroke:#000000;stroke-width:1px;stroke-linecap:butt;stroke-linejoin:miter;stroke-opacity:1" />
    <path
       d="m 195.53137,497.44884 c 9.63122,1.49324 17.97161,0.53571 26.78571,0.53571"
       id="path4407"
       style="fill:none;stroke:#000000;stroke-width:1px;stroke-linecap:butt;stroke-linejoin:miter;stroke-opacity:1" />
    <path
       d="m 303.05323,360.008 c -2.29859,-13.425 20.03633,-19.43211 25.26347,-4.40244 6.64322,19.10124 -15.47623,30.08905 -24.3448,34.33902 9.02983,0.7317 24.60693,0.88049 29.85684,0.88049"
       id="path4427"
       style="fill:none;stroke:#000000;stroke-width:1.25912809px;stroke-linecap:butt;stroke-linejoin:miter;stroke-opacity:1" />
    <path
       d="m 77.547907,248.76672 c -9.625,-0.15729 -24.330357,-0.53354 -32.678572,-0.83611 -8.348214,-0.30257 -15.72608,-0.54988 -16.395257,-0.54957 l -1.216685,5.6e-4 0.215502,-48.125 c 0.195408,-43.63754 1.554153,-158.646625 1.87816,-158.97427 0.211568,-0.213944 13.483221,8.518058 22.481246,14.791395 36.067295,25.145773 77.247349,59.310715 128.032019,106.221495 23.83516,22.01699 88.04357,83.36137 87.38605,83.48818 -0.22921,0.0442 -7.32746,0.40327 -15.77389,0.79791 -65.31008,3.05148 -120.39237,4.06029 -173.928573,3.18541 z m 40.625003,-37.69223 c 5.10436,-0.2117 5.625,-0.29313 5.625,-0.87978 0,-0.608 -0.37948,-0.63334 -6.37273,-0.42555 l -6.37273,0.22095 -0.22954,-0.85783 c -0.12624,-0.4718 -0.2343,-2.30425 -0.24012,-4.07211 -0.006,-1.76786 -0.24861,-7.3125 -0.53952,-12.32143 -0.52834,-9.09697 -0.73949,-25.80566 -0.36963,-29.24933 0.64316,-5.98831 0.66555,-5.45898 -0.22551,-5.33116 -0.67936,0.0974 -1.24477,1.12484 -3.50355,6.36621 -3.43422,7.9689 -4.86748,10.50236 -7.516287,13.28598 -1.958504,2.05819 -2.437497,3.14259 -1.388125,3.14259 0.79901,0 4.462652,-4.23275 6.012862,-6.94691 0.86711,-1.51815 2.37374,-4.63419 3.34806,-6.92454 0.97433,-2.29035 1.79167,-4.19125 1.81631,-4.22422 0.0246,-0.033 -0.01,4.06222 -0.0769,9.10043 -0.0721,5.42828 0.10756,13.38282 0.44108,19.52424 0.30955,5.70012 0.65365,12.19726 0.76467,14.43808 l 0.20185,4.07423 -4.92865,-0.24045 c -2.71075,-0.13225 -5.611682,-0.33949 -6.446503,-0.46054 -1.362004,-0.19749 -1.517857,-0.14521 -1.517857,0.50916 0,0.66065 0.294,0.75152 3.125,0.96595 1.71875,0.13018 3.28571,0.29263 3.48214,0.361 0.62546,0.21771 9.08842,0.18651 14.91072,-0.055 z"
       transform="translate(98.737251,287.6875)"
       id="path3179"
       style="fill:#80b3ff;fill-opacity:1;stroke:none" />
    <path
       d="M 270.22648,215.49629 C 186.37497,133.14829 114.39561,71.120305 49.71607,25.472184 l -6.403266,-4.519157 1.760409,0.0058 c 0.968224,0.0032 11.805051,0.240168 24.081837,0.526671 42.64847,0.995288 82.31948,1.37971 145.06448,1.40571 l 63.1002,0.02615 0.20233,2.857143 c 0.44286,6.253734 2.1808,56.590436 3.13819,90.892859 0.52125,18.67598 0.58191,100.21719 0.0784,105.39467 l -0.3336,3.43038 -10.17857,-9.99607 z m -35,-112.35508 c 0,-0.63267 -0.54753,-0.68141 -10.08929,-0.89821 -5.5491,-0.12609 -11.52668,-0.32672 -13.28349,-0.44586 l -3.19422,-0.21661 2.06747,-1.11732 c 4.25558,-2.299855 9.70434,-6.126951 12.42821,-8.729323 5.89314,-5.630275 8.21531,-10.3102 8.27344,-16.673718 0.0968,-10.600007 -5.7367,-16.989967 -15.10177,-16.542217 -7.18081,0.343317 -12.40682,4.932235 -12.81229,11.250371 -0.16588,2.584818 -0.15812,2.613275 0.71259,2.613275 0.83515,0 0.8803,-0.106982 0.8803,-2.085711 0,-2.715728 1.05965,-4.909368 3.37865,-6.994353 2.50664,-2.253686 5.09387,-3.185986 8.88326,-3.201065 2.59206,-0.01032 3.33023,0.13054 5.05102,0.96379 4.61968,2.236971 7.45554,7.451903 7.44474,13.690318 -0.0166,9.585628 -7.27891,17.750492 -22.76209,25.590943 -2.4054,1.21805 -4.37415,2.33519 -4.375,2.48251 -7.1e-4,0.14732 1.08329,0.28684 2.40918,0.31004 1.3259,0.0232 4.58036,0.15637 7.23215,0.29592 2.65178,0.13954 8.87946,0.28127 13.83928,0.31495 8.59791,0.0584 9.01786,0.0301 9.01786,-0.60773 z"
       transform="translate(98.737251,287.6875)"
       id="path3181"
       style="fill:#80b3ff;fill-opacity:1;stroke:none" />
  </g>
</svg>
