<?xml version="1.0" encoding="UTF-8" standalone="no"?>
<!-- Created with Inkscape (http://www.inkscape.org/) -->

<svg
   xmlns:dc="http://purl.org/dc/elements/1.1/"
   xmlns:cc="http://creativecommons.org/ns#"
   xmlns:rdf="http://www.w3.org/1999/02/22-rdf-syntax-ns#"
   xmlns:svg="http://www.w3.org/2000/svg"
   xmlns="http://www.w3.org/2000/svg"
   xmlns:sodipodi="http://sodipodi.sourceforge.net/DTD/sodipodi-0.dtd"
   xmlns:inkscape="http://www.inkscape.org/namespaces/inkscape"
   width="639.28125"
   height="158.38631"
   id="svg4178"
   version="1.1"
   inkscape:version="0.48.4 r9939"
   sodipodi:docname="New document 13">
  <defs
     id="defs4180" />
  <sodipodi:namedview
     id="base"
     pagecolor="#ffffff"
     bordercolor="#666666"
     borderopacity="1.0"
     inkscape:pageopacity="0.0"
     inkscape:pageshadow="2"
     inkscape:zoom="1.4"
     inkscape:cx="379.73108"
     inkscape:cy="8.5831934"
     inkscape:document-units="px"
     inkscape:current-layer="layer1"
     showgrid="false"
     inkscape:window-width="1855"
     inkscape:window-height="1056"
     inkscape:window-x="65"
     inkscape:window-y="24"
     inkscape:window-maximized="1"
     fit-margin-top="0"
     fit-margin-left="0"
     fit-margin-right="0"
     fit-margin-bottom="0" />
  <metadata
     id="metadata4183">
    <rdf:RDF>
      <cc:Work
         rdf:about="">
        <dc:format>image/svg+xml</dc:format>
        <dc:type
           rdf:resource="http://purl.org/dc/dcmitype/StillImage" />
        <dc:title></dc:title>
      </cc:Work>
    </rdf:RDF>
  </metadata>
  <g
     inkscape:label="Layer 1"
     inkscape:groupmode="layer"
     id="layer1"
     transform="translate(-2.21875,-504.59375)">
    <path
       style="fill:none;stroke:#000000;stroke-width:0.95477802px;stroke-linecap:butt;stroke-linejoin:miter;stroke-opacity:1"
       d="M 517.62382,507.8183 C 496.0355,563.06834 457.54829,614.7862 424.64457,662.41687"
       id="path4030"
       inkscape:connector-curvature="0" />
    <path
       style="fill:none;stroke:#000000;stroke-width:1px;stroke-linecap:butt;stroke-linejoin:miter;stroke-opacity:1"
       d="m 516.59106,507.84091 c 35.7436,48.3893 64.2079,107.82925 88.89343,153.54318 4.09543,-24.64083 24.35432,-41.75027 35.35533,-60.60915 -36.78949,-30.51856 -78.10615,-69.02069 -124.24876,-92.93403 z"
       id="path4036"
       inkscape:connector-curvature="0" />
    <path
       style="fill:none;stroke:#000000;stroke-width:1.00293446px;stroke-linecap:butt;stroke-linejoin:miter;stroke-opacity:1"
       d="m 425.17373,661.8892 c 60.19978,2.20534 121.71437,-2.59854 181.82452,0.50382"
       id="path4040"
       inkscape:connector-curvature="0" />
    <path
       style="fill:none;stroke:#000000;stroke-width:1px;stroke-linecap:butt;stroke-linejoin:miter;stroke-opacity:1"
       d="m 278.94524,572.82244 c 32.07587,-1.07723 65.23894,0.62438 96.46957,2.52538"
       id="path4086"
       inkscape:connector-curvature="0" />
    <path
       style="fill:none;stroke:#000000;stroke-width:1px;stroke-linecap:butt;stroke-linejoin:miter;stroke-opacity:1"
       d="m 375.91988,575.34782 c -8.07779,-7.90774 -19.22838,-15.38271 -27.77919,-22.22336"
       id="path4092"
       inkscape:connector-curvature="0" />
    <path
       style="fill:none;stroke:#000000;stroke-width:1px;stroke-linecap:butt;stroke-linejoin:miter;stroke-opacity:1"
       d="m 375.91988,573.83259 c -6.49919,9.33891 -16.05594,20.16328 -21.71828,27.27412"
       id="path4094"
       inkscape:connector-curvature="0" />
    <path
       style="fill:none;stroke:#000000;stroke-width:0.95477802px;stroke-linecap:butt;stroke-linejoin:miter;stroke-opacity:1"
       d="M 95.584607,505.01399 C 73.996287,560.26403 35.509077,611.98189 2.6053567,659.61256"
       id="path4030-7"
       inkscape:connector-curvature="0" />
    <path
       style="fill:none;stroke:#000000;stroke-width:1px;stroke-linecap:butt;stroke-linejoin:miter;stroke-opacity:1"
       d="m 94.551847,505.0366 c 35.743603,48.3893 64.207903,107.82925 88.893433,153.54318 4.09543,-24.64083 24.35432,-41.75027 35.35533,-60.60915 C 182.01112,567.45207 140.69446,528.94994 94.551847,505.0366 z"
       id="path4036-8"
       inkscape:connector-curvature="0" />
    <path
       style="fill:none;stroke:#000000;stroke-width:1.00293446px;stroke-linecap:butt;stroke-linejoin:miter;stroke-opacity:1"
       d="M 3.1345167,659.08489 C 63.334297,661.29023 124.84889,656.48635 184.95904,659.58871"
       id="path4040-5"
       inkscape:connector-curvature="0" />
    <path
       style="fill:#ff8080;fill-opacity:1;stroke:#000000;stroke-width:0.35714287;stroke-opacity:1"
       d="m 431.81872,661.34925 -5.43988,-0.21665 10.94063,-15.71429 c 32.26284,-46.33987 46.43533,-68.30155 59.60636,-92.36596 7.1484,-13.06064 14.681,-28.65165 19.0883,-39.50904 0.65782,-1.62053 1.31554,-2.94643 1.46159,-2.94643 0.58829,0 13.21157,18.4738 20.38549,29.83354 8.86975,14.04508 21.57859,36.05194 32.68332,56.59503 9.78337,18.09867 34.1271,64.31317 33.96348,64.47679 -0.0825,0.0825 -3.83663,-10e-4 -8.34255,-0.18685 -15.3684,-0.63185 -45.33746,-0.80135 -66.58543,-0.37661 -23.3896,0.46754 -89.37234,0.74459 -97.76131,0.41047 l 0,0 z"
       id="path4261"
       inkscape:connector-curvature="0" />
    <path
       style="fill:#80b3ff;fill-opacity:1;stroke:#000000;stroke-width:0.50507629;stroke-opacity:1"
       d="m 592.76782,635.57421 c -36.344,-68.77573 -48.7372,-90.0004 -72.17865,-123.61366 -0.38113,-0.5465 -0.48181,-0.99364 -0.22375,-0.99364 0.25806,0 3.21381,1.57797 6.56832,3.5066 18.4543,10.61004 39.4931,25.54087 63.29129,44.91658 8.48699,6.90984 43.48874,36.30028 47.40519,39.80542 l 2.15369,1.92752 -3.44896,5.05076 c -1.89693,2.77792 -6.5274,9.14188 -10.28993,14.14214 -8.07854,10.73606 -10.02392,13.58954 -13.51646,19.82595 -2.89002,5.16053 -5.20737,10.66857 -6.54896,15.56599 l -0.8782,3.20585 -12.33358,-23.33951 0,0 z"
       id="path4265"
       inkscape:connector-curvature="0" />
  </g>
</svg>
