<?xml version="1.0" encoding="UTF-8" standalone="no"?>
<!-- Created with Inkscape (http://www.inkscape.org/) -->

<svg
   xmlns:dc="http://purl.org/dc/elements/1.1/"
   xmlns:cc="http://creativecommons.org/ns#"
   xmlns:rdf="http://www.w3.org/1999/02/22-rdf-syntax-ns#"
   xmlns:svg="http://www.w3.org/2000/svg"
   xmlns="http://www.w3.org/2000/svg"
   version="1.1"
   width="331.60651"
   height="280.53125"
   id="svg4341">
  <defs
     id="defs4343" />
  <metadata
     id="metadata4346">
    <rdf:RDF>
      <cc:Work
         rdf:about="">
        <dc:format>image/svg+xml</dc:format>
        <dc:type
           rdf:resource="http://purl.org/dc/dcmitype/StillImage" />
        <dc:title></dc:title>
      </cc:Work>
    </rdf:RDF>
  </metadata>
  <g
     transform="translate(-98.737251,-287.6875)"
     id="layer1">
    <path
       d="m 3.5714286,263.03125 c -3.52648264,-0.25492 6.1294317,-0.47315 5.7142857,0.35714"
       transform="translate(98.737251,287.6875)"
       id="path3026"
       style="fill:none;stroke:#000000;stroke-width:1px;stroke-linecap:butt;stroke-linejoin:miter;stroke-opacity:1" />
    <path
       d="m 11.071429,262.67411 c -0.472666,-2.31473 1.632539,-3.31588 2.142857,-5.35715 0.318916,-1.27566 -0.957781,-3.92857 0.357143,-3.92857 0.206042,0 -0.194254,2.43728 0.357142,4.64286 0.75655,3.0262 1.023439,10.09598 0.357143,11.42857"
       transform="translate(98.737251,287.6875)"
       id="path3028"
       style="fill:none;stroke:#000000;stroke-width:1px;stroke-linecap:butt;stroke-linejoin:miter;stroke-opacity:1" />
    <path
       d="m 10.714286,269.45982 c 1.81077,0 6.199229,0 6.785714,0"
       transform="translate(98.737251,287.6875)"
       id="path3030"
       style="fill:none;stroke:#000000;stroke-width:1px;stroke-linecap:butt;stroke-linejoin:miter;stroke-opacity:1" />
    <path
       d="m 22.142857,269.10268 c -0.466578,1.1746 -0.357143,2.34787 -0.357143,3.57143"
       transform="translate(98.737251,287.6875)"
       id="path3032"
       style="fill:none;stroke:#000000;stroke-width:1px;stroke-linecap:butt;stroke-linejoin:miter;stroke-opacity:1" />
    <path
       d="m 23.928571,264.10268 c 1.509365,-0.908 2.994669,-0.71429 4.642858,-0.71429"
       transform="translate(98.737251,287.6875)"
       id="path3054"
       style="fill:none;stroke:#000000;stroke-width:1px;stroke-linecap:butt;stroke-linejoin:miter;stroke-opacity:1" />
    <path
       d="m 30.714286,260.53125 c 1.84056,-1.43928 3.264123,-3.35211 5.223214,-4.82143 1.436411,-1.07731 3.05578,-3.41292 1.919643,-2.27678 -2.33261,2.33261 0.443284,14.47057 -0.625,16.60714"
       transform="translate(98.737251,287.6875)"
       id="path3062"
       style="fill:none;stroke:#000000;stroke-width:1px;stroke-linecap:butt;stroke-linejoin:miter;stroke-opacity:1" />
    <path
       d="m 31.071429,271.60268 c 2.963826,-2.17375 10.116264,-2.42249 12.142857,-1.07143"
       transform="translate(98.737251,287.6875)"
       id="path3064"
       style="fill:none;stroke:#000000;stroke-width:1px;stroke-linecap:butt;stroke-linejoin:miter;stroke-opacity:1" />
    <path
       d="m 377.30868,543.93304 c 6.21527,-3.29682 3.57143,-9.34845 3.57143,-3.21429 0,3.3982 -0.26786,9.6477 -0.26786,10.80357"
       id="path3066"
       style="fill:none;stroke:#000000;stroke-width:1px;stroke-linecap:butt;stroke-linejoin:miter;stroke-opacity:1" />
    <path
       d="m 373.73725,552.86161 c 2.07406,-2.37776 14.7134,-0.71429 11.07143,-0.71429"
       id="path3068"
       style="fill:none;stroke:#000000;stroke-width:1px;stroke-linecap:butt;stroke-linejoin:miter;stroke-opacity:1" />
    <path
       d="m 392.66583,552.14732 c 0.24948,1.64524 -0.0915,2.68297 -0.71429,3.92857"
       id="path3070"
       style="fill:none;stroke:#000000;stroke-width:1px;stroke-linecap:butt;stroke-linejoin:miter;stroke-opacity:1" />
    <path
       d="m 397.30868,545.00447 c 1.76596,-0.2417 9.17876,-2.44653 5.71429,-0.71429"
       id="path3072"
       style="fill:none;stroke:#000000;stroke-width:1px;stroke-linecap:butt;stroke-linejoin:miter;stroke-opacity:1" />
    <path
       d="m 408.38011,545.71875 c 0.92706,-2.26638 3.36252,-3.07949 4.64286,-5 0.40397,-0.60596 1.44913,-3.92857 -0.35714,-3.92857 -0.49426,0 1.57646,15.3599 1.16071,16.60714"
       id="path3074"
       style="fill:none;stroke:#000000;stroke-width:1px;stroke-linecap:butt;stroke-linejoin:miter;stroke-opacity:1" />
    <path
       d="m 408.73725,553.21875 c 3.19236,0.19336 9.04654,-0.47673 10.71429,0.35714"
       id="path3076"
       style="fill:none;stroke:#000000;stroke-width:1px;stroke-linecap:butt;stroke-linejoin:miter;stroke-opacity:1" />
    <path
       d="m 385.88011,302.14732 c 4.07066,-2.24511 5.03682,-9.46982 3.92857,-3.92857 -0.58818,2.94093 -0.71428,9.64254 -0.71428,10.71429"
       id="path3078"
       style="fill:none;stroke:#000000;stroke-width:1px;stroke-linecap:butt;stroke-linejoin:miter;stroke-opacity:1" />
    <path
       d="m 383.38011,310.36161 c 1.69129,-1.48414 8.96637,-2.16176 8.21429,-1.78572"
       id="path3080"
       style="fill:none;stroke:#000000;stroke-width:1px;stroke-linecap:butt;stroke-linejoin:miter;stroke-opacity:1" />
    <path
       d="m 398.38011,307.14732 c 0.32542,2.30159 -0.57458,3.89759 -1.78571,5.71429"
       id="path3082"
       style="fill:none;stroke:#000000;stroke-width:1px;stroke-linecap:butt;stroke-linejoin:miter;stroke-opacity:1" />
    <path
       d="m 408.73725,304.64732 c 0.52398,-0.9799 5.09015,-9.0749 4.64286,-6.78571 -0.89024,4.55619 -2.99248,14.80335 -0.92535,10.6691"
       id="path3084"
       style="fill:none;stroke:#000000;stroke-width:1px;stroke-linecap:butt;stroke-linejoin:miter;stroke-opacity:1" />
    <path
       d="m 407.66582,311.43304 c -1.12123,-1.77057 7.37355,-3.09894 9.28572,-2.14286"
       id="path3086"
       style="fill:none;stroke:#000000;stroke-width:1px;stroke-linecap:butt;stroke-linejoin:miter;stroke-opacity:1" />
    <path
       d="m 101.59439,304.82589 c 1.98876,0.80733 5.92567,-0.42275 5,1.42857"
       id="path3094"
       style="fill:none;stroke:#000000;stroke-width:1px;stroke-linecap:butt;stroke-linejoin:miter;stroke-opacity:1" />
    <path
       d="m 112.66582,304.82589 c 1.6744,-1.10361 2.2808,-2.88548 3.21429,-4.28571 0.32269,-0.48403 0.38004,-3.23718 0,-2.85714 -2.63077,2.63076 -0.3087,11.15311 -1.33928,13.21428"
       id="path3096"
       style="fill:none;stroke:#000000;stroke-width:1px;stroke-linecap:butt;stroke-linejoin:miter;stroke-opacity:1" />
    <path
       d="m 110.16582,311.25446 c 1.82742,-0.67592 4.36326,-0.0388 5.71429,-0.71428"
       id="path3098"
       style="fill:none;stroke:#000000;stroke-width:1px;stroke-linecap:butt;stroke-linejoin:miter;stroke-opacity:1" />
    <path
       d="m 119.45154,310.18304 c 0.66406,1.62248 0.14616,3.13292 -0.35715,4.64285"
       id="path3100"
       style="fill:none;stroke:#000000;stroke-width:1px;stroke-linecap:butt;stroke-linejoin:miter;stroke-opacity:1" />
    <path
       d="m 126.59439,306.25446 c 0.69822,-2.06278 2.7563,-2.88444 3.92858,-4.64285 0.26926,-0.4039 1.41852,-3.57143 0,-3.57143 -0.99055,0 0,11.11902 0,12.5"
       id="path3102"
       style="fill:none;stroke:#000000;stroke-width:1px;stroke-linecap:butt;stroke-linejoin:miter;stroke-opacity:1" />
    <path
       d="m 125.16582,310.18304 c 2.74197,-0.20317 7.69342,0.0967 8.92857,0.71428"
       id="path3104"
       style="fill:none;stroke:#000000;stroke-width:1px;stroke-linecap:butt;stroke-linejoin:miter;stroke-opacity:1" />
  </g>
</svg>
