<?xml version="1.0" encoding="UTF-8" standalone="no"?>
<!-- Created with Inkscape (http://www.inkscape.org/) -->

<svg
   xmlns:dc="http://purl.org/dc/elements/1.1/"
   xmlns:cc="http://creativecommons.org/ns#"
   xmlns:rdf="http://www.w3.org/1999/02/22-rdf-syntax-ns#"
   xmlns:svg="http://www.w3.org/2000/svg"
   xmlns="http://www.w3.org/2000/svg"
   xmlns:sodipodi="http://sodipodi.sourceforge.net/DTD/sodipodi-0.dtd"
   xmlns:inkscape="http://www.inkscape.org/namespaces/inkscape"
   width="331.60651"
   height="280.53125"
   id="svg4341"
   version="1.1"
   inkscape:version="0.48.4 r9939"
   sodipodi:docname="triangle3.svg">
  <defs
     id="defs4343" />
  <sodipodi:namedview
     id="base"
     pagecolor="#ffffff"
     bordercolor="#666666"
     borderopacity="1.0"
     inkscape:pageopacity="0.0"
     inkscape:pageshadow="2"
     inkscape:zoom="2.8"
     inkscape:cx="216.355"
     inkscape:cy="122.01185"
     inkscape:document-units="px"
     inkscape:current-layer="layer1"
     showgrid="false"
     inkscape:window-width="1855"
     inkscape:window-height="1056"
     inkscape:window-x="65"
     inkscape:window-y="24"
     inkscape:window-maximized="1"
     fit-margin-top="0"
     fit-margin-left="0"
     fit-margin-right="0"
     fit-margin-bottom="0" />
  <metadata
     id="metadata4346">
    <rdf:RDF>
      <cc:Work
         rdf:about="">
        <dc:format>image/svg+xml</dc:format>
        <dc:type
           rdf:resource="http://purl.org/dc/dcmitype/StillImage" />
        <dc:title></dc:title>
      </cc:Work>
    </rdf:RDF>
  </metadata>
  <g
     inkscape:label="Layer 1"
     inkscape:groupmode="layer"
     id="layer1"
     transform="translate(-98.737251,-287.6875)">
    <path
       style="fill:none;stroke:#000000;stroke-width:1px;stroke-linecap:butt;stroke-linejoin:miter;stroke-opacity:1"
       d="m 108.08632,545.77068 c -1.26413,-0.39235 -2.17234,-1.26011 -3.03046,3.03046 -0.88237,4.41188 3.23752,13.28099 8.5863,10.6066 4.09088,-2.04544 8.58274,-19.69645 -5.55584,-13.63706 z"
       id="path4463"
       inkscape:connector-curvature="0" />
    <path
       style="fill:none;stroke:#000000;stroke-width:1px;stroke-linecap:butt;stroke-linejoin:miter;stroke-opacity:1"
       d="m 123.74369,559.91282 c -0.22249,1.98487 -1.51523,3.18653 -1.51523,5.05076"
       id="path4465"
       inkscape:connector-curvature="0" />
    <path
       style="fill:none;stroke:#000000;stroke-width:1px;stroke-linecap:butt;stroke-linejoin:miter;stroke-opacity:1"
       d="m 137.88582,545.77068 c -1.11154,0.25343 -2.09804,-1.35975 -4.04061,2.52538 -2.86229,5.72458 4.03704,20.88125 12.12183,10.10153 5.53129,-7.37505 -4.7466,-15.96153 -10.6066,-10.10153"
       id="path4467"
       inkscape:connector-curvature="0" />
    <path
       style="fill:none;stroke:#000000;stroke-width:1px;stroke-linecap:butt;stroke-linejoin:miter;stroke-opacity:1"
       d="m 371.73614,551.32652 c 4.24754,2.47908 6.70977,-9.74024 5.55584,-8.5863 -3.08507,3.08506 0.50507,15.43882 0.50507,19.69798"
       id="path4469"
       inkscape:connector-curvature="0" />
    <path
       style="fill:none;stroke:#000000;stroke-width:1px;stroke-linecap:butt;stroke-linejoin:miter;stroke-opacity:1"
       d="m 370.72598,563.44835 c 3.96853,-1.52448 7.78949,-2.52538 12.12183,-2.52538"
       id="path4473"
       inkscape:connector-curvature="0" />
    <path
       style="fill:none;stroke:#000000;stroke-width:1px;stroke-linecap:butt;stroke-linejoin:miter;stroke-opacity:1"
       d="m 387.89858,559.91282 c 1.07019,2.81653 1.4145,5.25221 0,8.08122"
       id="path4477"
       inkscape:connector-curvature="0" />
    <path
       style="fill:none;stroke:#000000;stroke-width:1px;stroke-linecap:butt;stroke-linejoin:miter;stroke-opacity:1"
       d="m 400.52548,543.2453 c 0.0511,-0.0999 -1.96538,-1.1749 -3.53553,3.53553 -2.31221,6.93663 6.46012,18.28862 13.13198,11.61676 8.42924,-8.42924 1.37227,-19.26556 -9.59645,-15.15229 z"
       id="path4479"
       inkscape:connector-curvature="0" />
    <path
       style="fill:none;stroke:#000000;stroke-width:1px;stroke-linecap:butt;stroke-linejoin:miter;stroke-opacity:1"
       d="m 386.38335,302.82899 c 2.34674,-0.51472 10.2821,-5.37526 7.07107,-8.58629 -0.21823,-0.21823 -1.01016,5.36262 -1.01016,6.06091 0,1.83919 0.50508,18.69218 0.50508,14.14214"
       id="path4481"
       inkscape:connector-curvature="0" />
    <path
       style="fill:none;stroke:#000000;stroke-width:1px;stroke-linecap:butt;stroke-linejoin:miter;stroke-opacity:1"
       d="m 384.86812,314.44575 c 4.4022,0.0577 8.76507,-1.01015 13.13198,-1.01015"
       id="path4483"
       inkscape:connector-curvature="0" />
    <path
       style="fill:none;stroke:#000000;stroke-width:1px;stroke-linecap:butt;stroke-linejoin:miter;stroke-opacity:1"
       d="m 406.5864,311.92037 c 0.36841,2.48185 -0.27388,4.35716 -1.01015,6.56599"
       id="path4485"
       inkscape:connector-curvature="0" />
    <path
       style="fill:none;stroke:#000000;stroke-width:1px;stroke-linecap:butt;stroke-linejoin:miter;stroke-opacity:1"
       d="m 419.21331,304.8493 c 2.49911,-3.12363 5.35183,-6.45905 6.56599,-10.10153 0.35714,-1.07143 -2.64462,-3.03045 -1.51523,-3.03045 0.11905,0 -0.50508,1.29755 -0.50508,1.51522 0,2.29018 -0.0716,4.39884 -0.50507,6.566 -0.48746,2.43728 1.77304,11.62731 1.01015,10.10152"
       id="path4487"
       inkscape:connector-curvature="0" />
    <path
       style="fill:none;stroke:#000000;stroke-width:1px;stroke-linecap:butt;stroke-linejoin:miter;stroke-opacity:1"
       d="m 416.18285,312.93052 c 2.5759,-1.7969 14.61223,-2.02031 13.63706,-2.02031"
       id="path4489"
       inkscape:connector-curvature="0" />
    <path
       style="fill:none;stroke:#000000;stroke-width:1px;stroke-linecap:butt;stroke-linejoin:miter;stroke-opacity:1"
       d="m 103.03556,293.73762 c -4.404343,-4.19284 -7.039226,17.33034 4.04061,13.63706 6.28828,-2.09609 7.5047,-13.13198 -1.51523,-13.13198 -3.35083,0 -2.52538,-2.0207 -2.52538,2.0203"
       id="path4491"
       inkscape:connector-curvature="0" />
    <path
       style="fill:none;stroke:#000000;stroke-width:1px;stroke-linecap:butt;stroke-linejoin:miter;stroke-opacity:1"
       d="m 118.18785,305.35437 c 0.46703,2.08258 -0.50508,-0.0131 -0.50508,4.54569"
       id="path4493"
       inkscape:connector-curvature="0" />
    <path
       style="fill:none;stroke:#000000;stroke-width:1px;stroke-linecap:butt;stroke-linejoin:miter;stroke-opacity:1"
       d="m 125.76399,296.263 c 4.30548,1.59338 10.78224,-8.08122 8.08122,-8.08122 -0.80753,0 -0.50507,17.0618 -0.50507,19.1929"
       id="path4499"
       inkscape:connector-curvature="0" />
    <path
       style="fill:none;stroke:#000000;stroke-width:1px;stroke-linecap:butt;stroke-linejoin:miter;stroke-opacity:1"
       d="m 126.77414,306.8696 c 3.7284,-1.65149 8.70016,0.95323 11.61676,-0.50507"
       id="path4501"
       inkscape:connector-curvature="0" />
  </g>
</svg>
